<?xml version="1.0" standalone="no"?>
<!DOCTYPE svg PUBLIC "-//W3C//DTD SVG 20010904//EN"
 "http://www.w3.org/TR/2001/REC-SVG-20010904/DTD/svg10.dtd">
<svg version="1.0" xmlns="http://www.w3.org/2000/svg"
 width="1238.000000pt" height="523.000000pt" viewBox="0 0 1238.000000 523.000000"
 preserveAspectRatio="xMidYMid meet">
<metadata>
Created by potrace 1.16, written by Peter Selinger 2001-2019
</metadata>
<g transform="translate(0.000000,523.000000) scale(0.100000,-0.100000)"
fill="#000000" stroke="none">
<path d="M2001 5069 c-15 -49 -6 -66 10 -21 6 18 14 32 18 32 8 0 36 -113 47
-187 4 -24 10 -43 14 -43 16 0 -31 221 -52 248 -17 20 -24 14 -37 -29z"/>
<path d="M3378 4873 c-9 -2 -19 -16 -23 -31 -5 -20 -2 -31 14 -43 25 -20 27
-46 5 -77 -8 -12 -14 -28 -12 -34 7 -20 48 58 48 91 0 25 -4 31 -17 29 -13 -2
-19 5 -21 25 -3 23 0 27 22 27 14 0 26 5 26 10 0 10 -12 11 -42 3z"/>
<path d="M8100 4835 c-165 -53 -219 -267 -99 -391 28 -28 49 -40 126 -70 21
-8 -14 -51 -429 -524 -406 -463 -455 -516 -487 -522 -90 -16 -149 -58 -186
-131 -70 -142 10 -306 166 -339 145 -30 279 81 279 232 0 102 -77 210 -162
227 -16 3 -28 9 -28 14 0 10 882 1021 886 1016 2 -2 -60 -228 -136 -502 -77
-275 -140 -505 -140 -512 0 -6 -18 -14 -40 -18 -61 -10 -130 -62 -162 -120
-48 -88 -33 -205 34 -277 28 -29 98 -68 123 -68 8 0 15 -2 15 -5 0 -3 -208
-243 -462 -533 -458 -524 -461 -527 -506 -534 -141 -21 -237 -178 -192 -313
17 -51 76 -114 128 -137 l43 -19 -468 -363 -468 -363 -39 13 c-151 54 -309
-60 -309 -221 0 -171 175 -284 328 -211 91 43 135 112 135 211 0 67 -20 119
-62 163 -20 19 -28 35 -22 41 7 7 791 615 893 693 13 10 25 17 27 15 2 -1 -54
-160 -124 -352 l-128 -350 -39 -6 c-63 -11 -92 -26 -139 -69 -93 -86 -101
-224 -18 -320 94 -110 246 -117 348 -14 121 121 82 313 -78 384 -27 11 -48 24
-48 28 0 4 56 160 124 347 l124 339 175 -351 176 -351 -45 -17 c-63 -24 -103
-61 -130 -120 -75 -160 36 -338 211 -338 135 0 234 100 235 236 0 66 -15 107
-56 156 -32 39 -115 81 -159 81 -30 0 -33 7 -208 356 -98 196 -177 357 -175
359 2 1 229 -153 506 -344 l503 -346 -42 -14 c-63 -21 -124 -87 -145 -156 -27
-95 -1 -182 76 -247 94 -81 219 -77 311 9 148 138 73 374 -130 408 -35 6 -141
74 -554 358 -480 330 -509 352 -480 358 60 12 122 57 153 112 24 42 30 63 30
115 0 107 -50 183 -144 223 l-54 22 446 509 c245 279 446 507 448 505 2 -2
-44 -172 -101 -378 -58 -206 -122 -436 -142 -511 -33 -119 -41 -138 -58 -138
-37 0 -121 -47 -152 -84 -96 -117 -54 -306 81 -367 54 -25 148 -24 201 0 114
53 167 191 120 309 -23 56 -92 116 -152 132 -27 7 -49 14 -51 16 -2 1 61 232
139 513 78 281 143 510 144 508 3 -3 345 -1025 345 -1030 0 -2 -18 -9 -41 -16
-22 -7 -59 -29 -81 -49 -163 -147 -63 -411 155 -412 98 0 172 46 213 135 67
143 -21 312 -174 333 l-47 7 -167 499 c-92 275 -167 501 -165 502 1 1 225
-217 497 -485 272 -268 490 -490 485 -493 -6 -3 -27 -11 -47 -17 -47 -15 -120
-95 -136 -149 -34 -112 17 -229 123 -285 62 -32 157 -29 219 7 110 64 154 202
99 311 -34 68 -101 117 -178 130 -36 6 -73 40 -340 304 -165 163 -402 397
-528 520 -125 124 -227 226 -227 227 0 1 17 5 37 9 120 22 203 118 203 235 0
118 -74 210 -188 235 -30 6 -33 10 -27 33 3 15 67 244 141 509 74 265 134 486
135 490 0 6 300 -879 345 -1019 4 -13 -4 -19 -34 -27 -49 -14 -117 -72 -144
-125 -49 -95 -17 -227 71 -291 123 -91 284 -52 354 85 25 48 28 63 24 118 -9
113 -94 207 -200 219 l-43 5 -166 500 c-109 327 -161 495 -150 486 36 -28 972
-953 972 -960 0 -5 -7 -8 -15 -8 -30 0 -93 -40 -127 -80 -55 -63 -70 -140 -47
-225 16 -57 100 -139 159 -155 170 -46 336 104 301 272 -22 100 -79 159 -181
187 -59 16 -62 19 -573 521 -282 278 -513 510 -513 515 0 6 14 15 31 21 89 30
155 125 155 221 0 64 -16 107 -60 157 -63 71 -162 99 -250 71z m156 -26 c37
-13 96 -72 115 -114 56 -123 -27 -277 -162 -300 -90 -15 -193 38 -230 119 -11
24 -19 64 -19 97 0 153 149 253 296 198z m1112 -1525 c64 -38 96 -92 100 -174
5 -80 -17 -131 -74 -178 -129 -107 -327 -28 -350 140 -10 70 11 126 66 180 73
70 171 83 258 32z m-2065 12 c90 -33 147 -112 147 -206 0 -103 -66 -185 -169
-210 -130 -31 -261 74 -261 210 0 146 148 254 283 206z m700 -28 c139 -77 142
-283 4 -373 -12 -7 -42 -18 -67 -24 -140 -31 -269 82 -258 228 11 159 179 247
321 169z m666 -4 c123 -62 157 -221 69 -328 -89 -108 -262 -102 -343 13 -40
56 -48 157 -17 217 58 113 179 154 291 98z m363 -1513 c75 -28 131 -114 131
-201 0 -202 -252 -291 -381 -135 -30 37 -52 94 -52 136 0 80 69 177 145 204
41 14 114 13 157 -4z m-2041 -3 c97 -28 155 -119 147 -228 -16 -220 -327 -263
-412 -58 -44 104 5 226 108 274 57 26 99 30 157 12z m677 -14 c81 -33 131
-111 132 -202 0 -151 -158 -255 -298 -196 -141 58 -177 240 -69 348 64 63 157
83 235 50z m688 -13 c70 -32 124 -117 124 -196 0 -150 -160 -257 -298 -199
-175 73 -176 322 -2 398 48 21 127 19 176 -3z m-2465 -1146 c151 -54 188 -260
65 -362 -142 -117 -346 -21 -346 163 0 66 18 108 64 153 59 57 137 74 217 46z
m2196 -28 c73 -38 122 -141 108 -226 -16 -98 -115 -181 -215 -181 -93 0 -189
78 -209 169 -16 74 2 144 53 199 60 67 176 84 263 39z m-1386 -5 c77 -30 131
-113 131 -202 0 -60 -8 -83 -49 -138 -73 -98 -234 -101 -325 -5 -30 31 -58
100 -58 142 0 82 68 178 145 206 41 15 111 13 156 -3z m660 -3 c120 -36 182
-179 129 -297 -36 -80 -104 -123 -194 -123 -64 0 -94 11 -141 53 -175 153 -18
434 206 367z"/>
<path d="M9222 3198 c-7 -7 -12 -21 -11 -32 0 -19 1 -19 10 2 13 35 43 25 47
-15 3 -27 -5 -41 -44 -83 -44 -48 -46 -50 -22 -50 14 0 41 3 59 7 l34 7 -32 6
-32 5 29 44 c36 52 38 84 8 105 -27 19 -31 19 -46 4z"/>
<path d="M7187 3189 c-17 -37 -13 -56 6 -24 11 19 12 18 18 -10 4 -16 7 -58 8
-92 0 -35 6 -63 11 -63 12 0 12 6 -1 110 -13 108 -21 122 -42 79z"/>
<path d="M7560 1660 c0 -5 14 -10 31 -10 27 0 30 -3 24 -22 -4 -13 -16 -32
-26 -44 -19 -20 -19 -21 5 -32 34 -15 40 -44 19 -89 -9 -21 -19 -42 -21 -48
-2 -5 5 -1 17 11 33 31 39 89 13 124 -18 24 -19 30 -7 40 20 17 19 66 -1 74
-24 9 -54 7 -54 -4z"/>
<path d="M8199 1618 c-5 -21 -2 -28 15 -32 32 -9 56 -7 56 4 0 6 -13 10 -29
10 -23 0 -30 5 -33 23 -3 20 -4 20 -9 -5z"/>
<path d="M8284 1604 c-4 -20 -2 -59 3 -87 10 -52 10 -52 12 36 1 92 -4 110
-15 51z"/>
<path d="M6596 465 c-9 -13 -16 -42 -16 -64 0 -35 4 -42 25 -47 35 -9 33 -48
-4 -85 -16 -16 -24 -29 -17 -29 17 0 52 39 61 68 9 32 -3 62 -26 62 -23 0 -33
21 -25 53 11 41 21 50 45 38 13 -7 21 -8 21 -2 0 9 -31 31 -43 31 -3 0 -12
-11 -21 -25z"/>
<path d="M7270 408 c-26 -56 -26 -128 -1 -159 16 -20 21 -22 35 -10 26 21 17
75 -11 79 -30 4 -31 52 -2 98 12 20 16 34 9 34 -6 0 -20 -19 -30 -42z m29
-112 c12 -14 5 -46 -9 -46 -9 0 -20 25 -20 46 0 18 14 18 29 0z"/>
<path d="M1878 4727 c-25 -56 -49 -119 -53 -139 l-7 -38 -789 0 c-519 0 -789
3 -789 10 0 6 -4 10 -10 10 -7 0 -10 -685 -10 -2035 0 -1350 3 -2035 10 -2035
7 0 10 678 10 2015 l0 2015 784 0 783 0 -18 -77 c-20 -85 -35 -202 -25 -192 4
4 11 35 16 70 6 35 17 94 26 132 l16 67 419 0 419 0 0 -1040 0 -1040 -1200 0
c-793 0 -1200 -3 -1200 -10 0 -7 407 -10 1200 -10 l1200 0 0 -950 c0 -627 3
-950 10 -950 7 0 10 323 10 950 l0 950 1105 0 c730 0 1105 3 1105 10 0 7 -375
10 -1105 10 l-1105 0 0 505 0 505 560 0 560 0 -2 -172 -3 -172 -58 -12 c-32
-6 -64 -17 -70 -23 -13 -13 -2 -14 21 -2 9 4 38 11 65 14 l47 7 0 -315 c0
-203 4 -315 10 -315 6 0 10 113 10 319 l0 318 36 6 c20 3 49 3 65 0 20 -4 29
-1 29 7 0 9 -18 11 -65 8 l-65 -4 0 168 0 168 555 0 c363 0 555 3 555 10 0 7
-192 10 -555 10 l-555 0 0 525 0 525 560 0 c364 0 560 3 560 10 0 6 -269 11
-772 12 l-773 3 -6 45 -6 45 -1 -47 -2 -48 -775 0 -775 0 6 28 c10 41 40 115
74 182 32 63 34 70 23 70 -5 0 -29 -47 -55 -103z m1512 -214 c0 -10 5 -25 11
-33 8 -11 9 -7 5 18 l-5 32 199 0 200 0 0 -525 0 -525 -560 0 -560 0 0 525 0
525 355 0 c331 0 355 -1 355 -17z"/>
<path d="M3200 4270 l0 -230 -135 0 -135 0 0 75 c0 43 -4 75 -10 75 -6 0 -10
-32 -10 -75 l0 -75 -95 0 c-57 0 -95 -4 -95 -10 0 -6 40 -10 100 -10 l100 0 0
-50 c0 -27 4 -50 9 -50 4 0 6 23 3 50 l-5 50 137 0 136 0 0 -265 c0 -170 4
-265 10 -265 6 0 10 95 10 265 l0 265 260 0 c167 0 260 4 260 10 0 6 -93 10
-260 10 l-260 0 0 230 c0 147 -4 230 -10 230 -6 0 -10 -83 -10 -230z"/>
<path d="M3577 4413 c-12 -11 -7 -79 6 -97 16 -22 65 -25 78 -5 15 23 11 59
-7 59 -10 0 -14 -7 -12 -22 2 -16 -3 -24 -16 -26 -36 -7 -51 60 -18 84 16 12
16 13 -4 14 -11 0 -24 -3 -27 -7z"/>
<path d="M2902 4366 c-28 -56 -22 -106 14 -106 17 0 28 9 36 26 11 22 10 28
-7 40 -10 8 -25 14 -33 14 -10 0 -8 8 7 29 23 31 26 41 13 41 -5 0 -18 -20
-30 -44z m36 -68 c-2 -13 -10 -23 -18 -23 -8 0 -16 10 -18 23 -3 17 2 22 18
22 16 0 21 -5 18 -22z"/>
<path d="M3432 4298 c6 -18 28 -21 28 -4 0 9 -7 16 -16 16 -9 0 -14 -5 -12
-12z"/>
<path d="M2779 3893 c-15 -4 -16 -7 -2 -34 8 -17 12 -41 9 -54 -6 -23 -4 -25
28 -25 19 0 38 5 41 10 3 6 -4 10 -18 10 -20 0 -25 6 -30 38 -4 21 -2 38 3 40
6 2 10 8 10 13 0 9 -13 10 -41 2z"/>
<path d="M3061 3853 c-10 -11 -16 -13 -19 -5 -7 23 -22 11 -22 -18 0 -29 13
-40 25 -20 10 15 35 12 35 -5 0 -8 5 -15 11 -15 13 0 8 72 -6 76 -5 2 -17 -4
-24 -13z"/>
<path d="M2800 3651 c0 -6 5 -13 10 -16 6 -3 10 1 10 9 0 9 -4 16 -10 16 -5 0
-10 -4 -10 -9z"/>
<path d="M3040 3641 c0 -6 5 -13 10 -16 6 -3 10 1 10 9 0 9 -4 16 -10 16 -5 0
-10 -4 -10 -9z"/>
<path d="M5400 4639 c-12 -8 -7 -9 18 -6 29 3 32 1 32 -22 0 -14 -12 -37 -27
-53 l-26 -28 27 -25 c29 -27 29 -40 -1 -97 -7 -16 -10 -28 -5 -28 11 0 42 66
42 90 0 11 -9 29 -21 41 l-21 21 26 27 c17 18 26 38 26 59 0 28 -3 32 -27 32
-16 0 -35 -5 -43 -11z"/>
<path d="M5070 4475 c-52 -19 -96 -35 -97 -35 -2 0 -3 9 -3 20 0 11 -4 20 -10
20 -5 0 -10 -13 -10 -30 0 -16 -4 -30 -9 -30 -17 0 -164 -70 -159 -76 3 -2 32
7 64 21 33 15 69 31 82 36 l22 9 0 -1208 0 -1208 -92 -66 c-51 -36 -119 -83
-151 -104 -32 -21 -53 -40 -47 -42 9 -3 159 96 241 160 20 15 40 28 43 28 3 0
6 -324 6 -720 0 -473 3 -720 10 -720 7 0 10 250 10 730 l0 730 48 34 c26 19
68 45 94 58 26 13 47 26 48 31 0 12 -68 -20 -131 -62 l-59 -39 0 1203 0 1203
53 22 c28 13 84 33 122 46 39 12 59 23 45 23 -14 0 -68 -16 -120 -34z"/>
<path d="M4302 4305 l-4 -115 30 0 c36 0 57 23 78 84 13 39 14 52 4 77 -15 36
-55 69 -84 69 -20 0 -21 -6 -24 -115z m83 45 c17 -32 6 -85 -25 -122 -17 -20
-21 -21 -30 -8 -10 14 -5 154 7 173 7 11 32 -11 48 -43z"/>
<path d="M1131 4216 c-10 -12 -71 -168 -71 -181 0 -3 5 -5 11 -5 5 0 15 13 20
29 8 23 17 31 42 33 18 2 30 8 27 13 -3 6 -15 9 -27 7 -13 -1 -23 0 -23 2 0
15 33 86 40 86 10 0 38 -81 48 -140 4 -24 12 -45 18 -47 20 -7 -14 151 -42
195 -17 25 -27 28 -43 8z"/>
<path d="M4142 4198 c6 -18 28 -21 28 -4 0 9 -7 16 -16 16 -9 0 -14 -5 -12
-12z"/>
<path d="M4693 4199 c-8 -8 -13 -42 -13 -90 0 -68 2 -78 18 -77 9 0 32 -3 50
-7 20 -5 32 -4 32 3 0 10 -56 28 -72 24 -5 -1 -8 14 -8 34 0 31 3 36 20 31 13
-3 20 0 20 9 0 8 -9 14 -20 14 -13 0 -20 7 -20 20 0 17 7 20 44 20 25 0 48 5
51 10 4 6 -6 10 -22 10 -15 0 -37 3 -48 6 -11 3 -26 -1 -32 -7z"/>
<path d="M924 3969 c-3 -6 -1 -16 5 -22 8 -8 11 -5 11 11 0 24 -5 28 -16 11z"/>
<path d="M4590 3921 c0 -6 5 -13 10 -16 6 -3 10 1 10 9 0 9 -4 16 -10 16 -5 0
-10 -4 -10 -9z"/>
<path d="M1672 3683 c-8 -3 -10 -9 -4 -16 5 -7 12 -59 16 -116 4 -58 11 -112
16 -120 5 -9 10 -11 10 -4 0 6 15 30 34 52 33 39 34 44 32 112 -2 38 -7 74
-12 78 -11 11 -75 20 -92 14z m81 -36 c7 -19 -4 -31 -30 -35 -19 -3 -23 2 -23
22 0 21 5 26 24 26 13 0 26 -6 29 -13z m-9 -73 c22 -22 20 -38 -9 -71 l-24
-28 -1 26 c0 15 -3 41 -6 58 -5 24 -3 31 9 31 9 0 23 -7 31 -16z"/>
<path d="M1562 3358 c6 -18 28 -21 28 -4 0 9 -7 16 -16 16 -9 0 -14 -5 -12
-12z"/>
<path d="M3243 3320 c-21 -8 -23 -16 -23 -75 0 -51 3 -65 15 -65 9 0 15 9 15
25 0 16 6 25 15 25 8 0 15 5 15 10 0 6 -6 10 -14 10 -20 0 -32 40 -15 51 8 5
29 9 47 9 17 0 32 5 32 10 0 12 -57 12 -87 0z"/>
<path d="M4092 3132 l-2 -64 48 5 c26 3 58 7 72 9 24 3 25 0 33 -72 5 -41 10
-77 13 -79 11 -12 13 11 4 59 -5 29 -10 82 -11 119 -1 57 -2 62 -10 35 -7 -24
-19 -36 -49 -48 -22 -9 -51 -16 -65 -16 -22 0 -24 4 -28 58 l-3 57 -2 -63z"/>
<path d="M3060 3101 c0 -6 5 -13 10 -16 6 -3 10 1 10 9 0 9 -4 16 -10 16 -5 0
-10 -4 -10 -9z"/>
<path d="M5368 2294 c-3 -11 -9 -27 -13 -36 -4 -11 -3 -18 4 -18 6 0 11 8 11
18 1 15 2 15 16 -3 22 -28 13 -76 -29 -167 -37 -82 -39 -103 -3 -62 12 14 37
29 56 34 l35 8 -37 1 c-21 1 -38 3 -38 5 0 2 9 25 20 51 25 57 25 109 1 154
-15 28 -19 31 -23 15z"/>
<path d="M4071 1872 c-40 -62 -39 -85 2 -116 34 -26 97 -36 97 -16 0 6 -12 10
-27 10 -16 0 -41 11 -58 24 -32 26 -31 33 15 103 12 17 17 34 11 37 -5 3 -23
-16 -40 -42z"/>
<path d="M3940 1605 c0 -8 5 -15 10 -15 6 0 10 7 10 15 0 8 -4 15 -10 15 -5 0
-10 -7 -10 -15z"/>
<path d="M250 500 c0 -7 785 -10 2335 -10 1550 0 2335 3 2335 10 0 7 -785 10
-2335 10 -1550 0 -2335 -3 -2335 -10z"/>
</g>
</svg>
