<svg version="1.1" xmlns="http://www.w3.org/2000/svg" viewBox="643.5 161.0 1237.8 523.1">
<rect x="643.5" y="161.0" width="1237.8" height="523.1" fill="#202124" />
<polyline points="666.4 227.0,666.4 227.0,666.4 292.2,666.4 357.4,666.4 422.6,666.4 487.7,666.4 552.9,666.4 634.4" style="fill:none;stroke:#ffffff;stroke-width:2"/>
<polyline points="667.4 230.0,667.4 230.0,742.7 230.0,817.9 230.0,893.2 230.0,968.5 230.0,1043.7 230.0,1137.8 230.0" style="fill:none;stroke:#ffffff;stroke-width:2"/>
<polyline points="668.4 634.0,668.4 634.0,743.1 634.0,817.8 634.0,892.5 634.0,967.2 634.0,1041.9 634.0,1135.3 634.0" style="fill:none;stroke:#ffffff;stroke-width:2"/>
<polyline points="1139.4 631.0,1139.4 631.0,1139.4 567.8,1139.4 504.5,1139.4 441.3,1139.4 378.0,1139.4 314.7,1139.4 235.7" style="fill:none;stroke:#ffffff;stroke-width:2"/>
<polyline points="910.4 229.0,910.4 229.0,910.4 293.3,910.4 357.6,910.4 421.9,910.4 486.2,910.4 550.6,910.4 630.9" style="fill:none;stroke:#ffffff;stroke-width:2"/>
<polyline points="669.4 440.0,669.4 440.0,743.5 440.0,817.6 440.0,891.7 440.0,965.8 440.0,1039.9 440.0,1132.5 440.0" style="fill:none;stroke:#ffffff;stroke-width:2"/>
<polyline points="909.4 337.0,909.4 337.0,945.7 337.0,982.1 337.0,1018.4 337.0,1054.7 337.0,1091.0 337.0,1136.4 337.0" style="fill:none;stroke:#ffffff;stroke-width:2"/>
<polyline points="1024.4 230.0,1024.4 230.0,1024.4 263.2,1024.4 296.3,1024.4 329.5,1024.4 362.6,1024.4 395.8,1024.4 437.2" style="fill:none;stroke:#ffffff;stroke-width:2"/>
<polyline points="915.4 281.0,915.4 281.0,931.7 281.0,948.1 281.0,964.4 281.0,980.7 281.0,997.0 281.0,1017.4 281.0" style="fill:none;stroke:#ffffff;stroke-width:2"/>
<polyline points="964.4 234.0,964.4 234.0,964.4 250.2,964.4 266.4,964.4 282.7,964.4 298.9,964.4 315.1,964.4 335.3" style="fill:none;stroke:#ffffff;stroke-width:2"/>
<polyline points="736.9 286.5,736.9 288.0,736.1 287.2" style="fill:none;stroke:#ffffff;stroke-width:2"/>
<polyline points="800.9 346.8,800.9 348.3,800.1 347.6" style="fill:none;stroke:#ffffff;stroke-width:2"/>
<polyline points="924.8 318.1,924.8 319.6,924.1 318.9" style="fill:none;stroke:#ffffff;stroke-width:2"/>
<polyline points="948.5 318.8,948.5 320.3,947.8 319.5" style="fill:none;stroke:#ffffff;stroke-width:2"/>
<polyline points="987.9 252.9,987.9 254.4,987.1 253.7" style="fill:none;stroke:#ffffff;stroke-width:2"/>
<polyline points="1058.9 262.7,1058.9 264.2,1058.2 263.4" style="fill:none;stroke:#ffffff;stroke-width:2"/>
<polyline points="1103.4 290.7,1103.4 292.2,1102.6 291.5" style="fill:none;stroke:#ffffff;stroke-width:2"/>
<polyline points="950.6 373.1,950.6 374.6,949.8 373.9" style="fill:none;stroke:#ffffff;stroke-width:2"/>
<polyline points="1038.1 521.8,1038.1 523.3,1037.4 522.5" style="fill:none;stroke:#ffffff;stroke-width:2"/>
<polyline points="750.6 280.9,751.7 277.5,752.9 273.8,753.6 271.5,755.1 267.8,757.0 263.7,758.5 261.8,760.4 264.4,761.5 266.7,762.3 270.0,763.4 273.4,764.1 276.4,764.5 278.7,764.9 281.7,765.3 283.2" style="fill:none;stroke:#ffffff;stroke-width:2"/>
<polyline points="752.1 274.2,760.0 273.4" style="fill:none;stroke:#ffffff;stroke-width:2"/>
<polyline points="812.5 315.5,812.5 322.2,813.3 335.7,814.0 339.5,815.2 337.2,817.1 335.4,818.9 333.9,820.1 331.6,820.1 328.6,819.7 326.3,818.9 324.5,817.1 323.3,815.2 324.1,817.4 324.8,819.3 323.3,820.1 321.5,820.1 319.2,818.6 317.3,816.3 317.0,813.7 316.6,811.4 316.6,809.9 316.6" style="fill:none;stroke:#ffffff;stroke-width:2"/>
<polyline points="1054.7 492.6,1048.3 502.4,1049.0 505.8,1054.3 509.9,1060.3 510.6" style="fill:none;stroke:#ffffff;stroke-width:2"/>
<polyline points="1076.2 243.4,1075.4 246.4,1075.0 250.9,1074.7 254.3,1074.7 257.6,1075.0 264.4,1077.3 264.4,1079.6 263.3,1081.1 261.8,1082.2 259.1,1083.3 256.1,1084.1 253.1,1084.1 250.5,1082.2 246.8,1079.9 244.5,1077.7 243.0,1075.0 242.6,1074.3 243.4" style="fill:none;stroke:#ffffff;stroke-width:2"/>
<polyline points="1112.5 281.3,1112.1 274.5,1112.1 265.9,1114.0 264.4,1119.2 264.8,1121.5 264.8,1121.1 265.2" style="fill:none;stroke:#ffffff;stroke-width:2"/>
<polyline points="1114.0 279.1,1118.1 280.6,1119.2 280.6,1120.0 280.6,1120.7 280.6,1121.5 280.6" style="fill:none;stroke:#ffffff;stroke-width:2"/>
<polyline points="1114.0 271.9,1114.0 271.2,1114.7 271.2,1115.5 271.2,1116.2 271.2,1117.0 271.5,1117.7 271.5" style="fill:none;stroke:#ffffff;stroke-width:2"/>
<polyline points="967.0 366.1,967.0 359.3,966.6 353.7,970.3 352.2,973.3 351.8,975.6 352.2,976.3 352.5" style="fill:none;stroke:#ffffff;stroke-width:2"/>
<polyline points="968.1 359.7,968.1 360.4,968.8 360.4,969.6 360.4,970.3 360.4,971.1 360.4,971.8 360.4" style="fill:none;stroke:#ffffff;stroke-width:2"/>
<polyline points="1005.1 242.3,1001.7 243.4,1001.0 247.5,1002.1 251.3,1003.6 253.2,1005.9 253.5,1008.5 252.8,1009.2 250.5,1009.2 248.3,1007.4 248.3" style="fill:none;stroke:#ffffff;stroke-width:2"/>
<polyline points="946.2 297.8,946.2 304.2,946.9 302.3,948.8 300.4,951.1 300.8" style="fill:none;stroke:#ffffff;stroke-width:2"/>
<polyline points="951.8 297.1,952.2 302.7,952.2 303.4,952.2 304.2,952.2 305.0" style="fill:none;stroke:#ffffff;stroke-width:2"/>
<polyline points="922.5 295.9,923.3 301.9,923.7 302.7,923.7 303.4,923.7 304.2,924.0 305.3" style="fill:none;stroke:#ffffff;stroke-width:2"/>
<polyline points="919.9 295.9,924.8 295.2,925.5 295.2" style="fill:none;stroke:#ffffff;stroke-width:2"/>
<polyline points="921.8 305.3,926.3 305.3,927.8 305.3,928.2 305.0,928.5 305.3" style="fill:none;stroke:#ffffff;stroke-width:2"/>
<polyline points="1336.0 552.6,1337.6 552.6,1339.2 552.4,1340.8 552.1,1342.3 551.7,1343.8 551.2,1345.3 550.6,1346.7 549.9,1348.1 549.1,1349.4 548.3,1350.7 547.3,1351.9 546.2,1353.0 545.1,1354.0 543.8,1354.9 542.6,1355.8 541.2,1356.5 539.8,1357.2 538.4,1357.7 536.9,1358.2 535.3,1358.5 533.8,1358.7 532.2,1358.8 530.6,1358.8 529.0,1358.7 527.4,1358.5 525.9,1358.2 524.3,1357.7 522.8,1357.2 521.3,1356.5 519.8,1355.8 518.4,1354.9 517.1,1354.0 515.8,1353.0 514.6,1351.9 513.4,1350.7 512.4,1349.4 511.4,1348.1 510.5,1346.7 509.7,1345.3 509.0,1343.8 508.4,1342.3 507.9,1340.8 507.5,1339.2 507.2,1337.6 507.1,1336.0 507.0,1334.4 507.1,1332.9 507.2,1331.3 507.5,1329.8 507.9,1328.2 508.4,1326.8 509.0,1325.3 509.7,1324.0 510.5,1322.6 511.4,1321.4 512.4,1320.2 513.4,1319.1 514.6,1318.1 515.8,1317.1 517.1,1316.3 518.4,1315.5 519.8,1314.9 521.3,1314.4 522.8,1313.9 524.3,1313.6 525.9,1313.4 527.4,1313.3 529.0,1313.3 530.6,1313.4 532.2,1313.6 533.8,1313.9 535.3,1314.4 536.9,1314.9 538.4,1315.5 539.8,1316.3 541.2,1317.1 542.6,1318.1 543.8,1319.1 545.1,1320.2 546.2,1321.4 547.3,1322.6 548.3,1324.0 549.1,1325.3 549.9,1326.8 550.6,1328.2 551.2,1329.8 551.7,1331.3 552.1,1332.9 552.4,1334.4 552.6,1336.0 552.6,1336.4 552.6" style="fill:none;stroke:#ffffff;stroke-width:2"/>
<polyline points="1402.0 553.5,1403.6 553.4,1405.2 553.3,1406.7 553.0,1408.3 552.6,1409.8 552.1,1411.3 551.5,1412.7 550.8,1414.1 550.0,1415.4 549.1,1416.6 548.1,1417.8 547.1,1418.9 545.9,1419.9 544.7,1420.9 543.4,1421.7 542.1,1422.5 540.7,1423.1 539.2,1423.7 537.7,1424.1 536.2,1424.4 534.6,1424.7 533.1,1424.8 531.5,1424.8 529.9,1424.7 528.3,1424.4 526.7,1424.1 525.2,1423.7 523.6,1423.1 522.1,1422.5 520.7,1421.7 519.3,1420.9 517.9,1419.9 516.6,1418.9 515.4,1417.8 514.3,1416.6 513.2,1415.4 512.2,1414.1 511.4,1412.7 510.6,1411.3 509.9,1409.8 509.3,1408.3 508.8,1406.7 508.4,1405.2 508.1,1403.6 507.9,1402.0 507.9,1400.4 507.9,1398.8 508.1,1397.2 508.4,1395.7 508.8,1394.2 509.3,1392.7 509.9,1391.3 510.6,1389.9 511.4,1388.6 512.2,1387.3 513.2,1386.2 514.3,1385.0 515.4,1384.0 516.6,1383.1 517.9,1382.2 519.3,1381.5 520.7,1380.9 522.1,1380.3 523.6,1379.9 525.2,1379.5 526.7,1379.3 528.3,1379.2 529.9,1379.2 531.5,1379.3 533.1,1379.5 534.6,1379.9 536.2,1380.3 537.7,1380.9 539.2,1381.5 540.7,1382.2 542.1,1383.1 543.4,1384.0 544.7,1385.0 545.9,1386.2 547.1,1387.3 548.1,1388.6 549.1,1389.9 550.0,1391.3 550.8,1392.7 551.5,1394.2 552.1,1395.7 552.6,1397.2 553.0,1398.8 553.3,1400.4 553.4,1402.0 553.5,1402.4 553.5" style="fill:none;stroke:#ffffff;stroke-width:2"/>
<polyline points="1469.7 554.3,1471.3 554.3,1472.8 554.1,1474.4 553.8,1476.0 553.5,1477.5 553.0,1478.9 552.4,1480.4 551.7,1481.8 550.9,1483.1 550.0,1484.3 549.0,1485.5 547.9,1486.6 546.8,1487.6 545.6,1488.6 544.3,1489.4 542.9,1490.2 541.5,1490.8 540.1,1491.3 538.6,1491.8 537.1,1492.1 535.5,1492.3 533.9,1492.5 532.3,1492.5 530.8,1492.3 529.2,1492.1 527.6,1491.8 526.0,1491.3 524.5,1490.8 523.0,1490.2 521.6,1489.4 520.2,1488.6 518.8,1487.6 517.5,1486.6 516.3,1485.5 515.2,1484.3 514.1,1483.1 513.1,1481.8 512.2,1480.4 511.4,1478.9 510.7,1477.5 510.1,1476.0 509.6,1474.4 509.3,1472.8 509.0,1471.3 508.8,1469.7 508.8,1468.1 508.8,1466.5 509.0,1464.9 509.3,1463.4 509.6,1461.9 510.1,1460.4 510.7,1459.0 511.4,1457.6 512.2,1456.3 513.1,1455.0 514.1,1453.8 515.2,1452.7 516.3,1451.7 517.5,1450.8 518.8,1449.9 520.2,1449.2 521.6,1448.5 523.0,1448.0 524.5,1447.6 526.0,1447.2 527.6,1447.0 529.2,1446.9 530.8,1446.9 532.3,1447.0 533.9,1447.2 535.5,1447.6 537.1,1448.0 538.6,1448.5 540.1,1449.2 541.5,1449.9 542.9,1450.8 544.3,1451.7 545.6,1452.7 546.8,1453.8 547.9,1455.0 549.0,1456.3 550.0,1457.6 550.9,1459.0 551.7,1460.4 552.4,1461.9 553.0,1463.4 553.5,1464.9 553.8,1466.5 554.1,1468.1 554.3,1469.7 554.3,1470.1 554.3" style="fill:none;stroke:#ffffff;stroke-width:2"/>
<polyline points="1538.2 551.7,1539.8 551.7,1541.4 551.5,1543.0 551.2,1544.5 550.9,1546.0 550.4,1547.5 549.8,1548.9 549.1,1550.3 548.3,1551.6 547.4,1552.9 546.4,1554.1 545.3,1555.2 544.2,1556.2 543.0,1557.1 541.7,1558.0 540.3,1558.7 538.9,1559.4 537.5,1559.9 536.0,1560.3 534.5,1560.7 532.9,1560.9 531.3,1561.0 529.7,1561.0 528.2,1560.9 526.6,1560.7 525.0,1560.3 523.4,1559.9 521.9,1559.4 520.4,1558.7 519.0,1558.0 517.6,1557.1 516.2,1556.2 514.9,1555.2 513.7,1554.1 512.6,1552.9 511.5,1551.6 510.5,1550.3 509.6,1548.9 508.8,1547.5 508.1,1546.0 507.5,1544.5 507.0,1543.0 506.7,1541.4 506.4,1539.8 506.2,1538.2 506.2,1536.6 506.2,1535.1 506.4,1533.5 506.7,1531.9 507.0,1530.4 507.5,1529.0 508.1,1527.5 508.8,1526.1 509.6,1524.8 510.5,1523.6 511.5,1522.4 512.6,1521.3 513.7,1520.3 514.9,1519.3 516.2,1518.5 517.6,1517.7 519.0,1517.1 520.4,1516.5 521.9,1516.1 523.4,1515.8 525.0,1515.6 526.6,1515.4 528.2,1515.4 529.7,1515.6 531.3,1515.8 532.9,1516.1 534.5,1516.5 536.0,1517.1 537.5,1517.7 538.9,1518.5 540.3,1519.3 541.7,1520.3 543.0,1521.3 544.2,1522.4 545.3,1523.6 546.4,1524.8 547.4,1526.1 548.3,1527.5 549.1,1529.0 549.8,1530.4 550.4,1531.9 550.9,1533.5 551.2,1535.1 551.5,1536.6 551.7,1538.2 551.7,1538.6 551.7" style="fill:none;stroke:#ffffff;stroke-width:2"/>
<polyline points="1305.2 672.8,1306.8 672.7,1308.4 672.6,1310.0 672.3,1311.5 671.9,1313.0 671.4,1314.5 670.8,1315.9 670.1,1317.3 669.3,1318.6 668.4,1319.9 667.5,1321.1 666.4,1322.2 665.3,1323.2 664.0,1324.1 662.7,1325.0 661.4,1325.7 660.0,1326.4 658.5,1326.9 657.0,1327.3 655.5,1327.7 654.0,1327.9 652.4,1328.0 650.8,1328.0 649.2,1327.9 647.6,1327.7 646.0,1327.3 644.5,1326.9 643.0,1326.4 641.5,1325.7 640.0,1325.0 638.6,1324.1 637.3,1323.2 636.0,1322.2 634.7,1321.1 633.6,1319.9 632.5,1318.6 631.6,1317.3 630.7,1315.9 629.9,1314.5 629.2,1313.0 628.6,1311.5 628.1,1310.0 627.7,1308.4 627.4,1306.8 627.3,1305.2 627.2,1303.6 627.3,1302.1 627.4,1300.5 627.7,1298.9 628.1,1297.4 628.6,1296.0 629.2,1294.5 629.9,1293.2 630.7,1291.8 631.6,1290.6 632.5,1289.4 633.6,1288.3 634.7,1287.3 636.0,1286.3 637.3,1285.5 638.6,1284.7 640.0,1284.1 641.5,1283.6 643.0,1283.1 644.5,1282.8 646.0,1282.6 647.6,1282.5 649.2,1282.5 650.8,1282.6 652.4,1282.8 654.0,1283.1 655.5,1283.6 657.0,1284.1 658.5,1284.7 660.0,1285.5 661.4,1286.3 662.7,1287.3 664.0,1288.3 665.3,1289.4 666.4,1290.6 667.5,1291.8 668.4,1293.2 669.3,1294.5 670.1,1296.0 670.8,1297.4 671.4,1298.9 671.9,1300.5 672.3,1302.1 672.6,1303.6 672.7,1305.2 672.8,1305.6 672.8" style="fill:none;stroke:#ffffff;stroke-width:2"/>
<polyline points="1372.9 673.7,1374.5 673.6,1376.1 673.4,1377.7 673.2,1379.2 672.8,1380.7 672.3,1382.2 671.7,1383.6 671.0,1385.0 670.2,1386.3 669.3,1387.6 668.3,1388.8 667.3,1389.9 666.1,1390.9 664.9,1391.8 663.6,1392.7 662.3,1393.4 660.9,1394.1 659.4,1394.6 657.9,1395.0 656.4,1395.4 654.8,1395.6 653.3,1395.7 651.7,1395.7 650.1,1395.6 648.5,1395.4 646.9,1395.0 645.4,1394.6 643.8,1394.1 642.3,1393.4 640.9,1392.7 639.5,1391.8 638.1,1390.9 636.8,1389.9 635.6,1388.8 634.5,1387.6 633.4,1386.3 632.4,1385.0 631.5,1383.6 630.7,1382.2 630.0,1380.7 629.4,1379.2 629.0,1377.7 628.6,1376.1 628.3,1374.5 628.1,1372.9 628.1,1371.3 628.1,1369.7 628.3,1368.2 628.6,1366.6 629.0,1365.1 629.4,1363.6 630.0,1362.2 630.7,1360.8 631.5,1359.5 632.4,1358.3 633.4,1357.1 634.5,1356.0 635.6,1355.0 636.8,1354.0 638.1,1353.2 639.5,1352.4 640.9,1351.8 642.3,1351.2 643.8,1350.8 645.4,1350.5 646.9,1350.2 648.5,1350.1 650.1,1350.1 651.7,1350.2 653.3,1350.5 654.8,1350.8 656.4,1351.2 657.9,1351.8 659.4,1352.4 660.9,1353.2 662.3,1354.0 663.6,1355.0 664.9,1356.0 666.1,1357.1 667.3,1358.3 668.3,1359.5 669.3,1360.8 670.2,1362.2 671.0,1363.6 671.7,1365.1 672.3,1366.6 672.8,1368.2 673.2,1369.7 673.4,1371.3 673.6,1372.9 673.7,1373.3 673.7" style="fill:none;stroke:#ffffff;stroke-width:2"/>
<polyline points="1441.5 671.1,1443.1 671.0,1444.6 670.8,1446.2 670.6,1447.8 670.2,1449.3 669.7,1450.7 669.1,1452.2 668.4,1453.5 667.6,1454.9 666.7,1456.1 665.7,1457.3 664.7,1458.4 663.5,1459.4 662.3,1460.4 661.0,1461.2 659.7,1462.0 658.3,1462.6 656.8,1463.1 655.3,1463.6 653.8,1463.9 652.2,1464.1 650.6,1464.2 649.1,1464.2 647.5,1464.1 645.9,1463.9 644.3,1463.6 642.8,1463.1 641.2,1462.6 639.7,1462.0 638.3,1461.2 636.9,1460.4 635.5,1459.4 634.2,1458.4 633.0,1457.3 631.9,1456.1 630.8,1454.9 629.8,1453.5 628.9,1452.2 628.1,1450.7 627.4,1449.3 626.8,1447.8 626.4,1446.2 626.0,1444.6 625.7,1443.1 625.5,1441.5 625.5,1439.9 625.5,1438.3 625.7,1436.7 626.0,1435.2 626.4,1433.7 626.8,1432.2 627.4,1430.8 628.1,1429.4 628.9,1428.1 629.8,1426.8 630.8,1425.6 631.9,1424.5 633.0,1423.5 634.2,1422.6 635.5,1421.7 636.9,1421.0 638.3,1420.3 639.7,1419.8 641.2,1419.4 642.8,1419.0 644.3,1418.8 645.9,1418.7 647.5,1418.7 649.1,1418.8 650.6,1419.0 652.2,1419.4 653.8,1419.8 655.3,1420.3 656.8,1421.0 658.3,1421.7 659.7,1422.6 661.0,1423.5 662.3,1424.5 663.5,1425.6 664.7,1426.8 665.7,1428.1 666.7,1429.4 667.6,1430.8 668.4,1432.2 669.1,1433.7 669.7,1435.2 670.2,1436.7 670.6,1438.3 670.8,1439.9 671.0,1441.5 671.1,1441.9 671.1" style="fill:none;stroke:#ffffff;stroke-width:2"/>
<polyline points="1430.8 400.0,1430.8 400.0,1415.9 417.0,1401.0 434.1,1386.0 451.2,1371.1 468.2,1356.2 485.3,1337.5 506.6" style="fill:none;stroke:#ffffff;stroke-width:2"/>
<polyline points="1431.7 400.4,1431.7 400.4,1426.9 417.4,1422.1 434.5,1417.4 451.6,1412.6 468.6,1407.8 485.7,1401.9 507.0" style="fill:none;stroke:#ffffff;stroke-width:2"/>
<polyline points="1432.5 402.0,1432.5 402.0,1438.1 419.0,1443.8 436.0,1449.5 453.0,1455.1 470.0,1460.8 487.0,1467.9 508.2" style="fill:none;stroke:#ffffff;stroke-width:2"/>
<polyline points="1432.5 402.4,1432.5 402.4,1449.5 419.2,1466.6 436.0,1483.7 452.8,1500.7 469.6,1517.8 486.4,1539.1 507.4" style="fill:none;stroke:#ffffff;stroke-width:2"/>
<polyline points="1334.7 551.3,1334.7 551.3,1319.1 563.3,1303.6 575.4,1288.1 587.4,1272.6 599.5,1257.1 611.5,1237.7 626.5" style="fill:none;stroke:#ffffff;stroke-width:2"/>
<polyline points="1334.3 553.3,1334.3 553.3,1329.9 565.3,1325.5 577.4,1321.1 589.4,1316.7 601.5,1312.4 613.5,1306.9 628.6" style="fill:none;stroke:#ffffff;stroke-width:2"/>
<polyline points="1334.3 554.1,1334.3 554.1,1340.1 565.8,1345.8 577.4,1351.6 589.1,1357.4 600.7,1363.2 612.4,1370.5 627.0" style="fill:none;stroke:#ffffff;stroke-width:2"/>
<polyline points="1333.9 552.1,1333.9 552.1,1351.2 564.0,1368.5 575.9,1385.8 587.8,1403.1 599.7,1420.5 611.7,1442.1 626.5" style="fill:none;stroke:#ffffff;stroke-width:2"/>
<polyline points="1460.6 245.9,1462.2 245.9,1463.8 245.7,1465.4 245.4,1466.9 245.1,1468.4 244.6,1469.9 244.0,1471.3 243.3,1472.7 242.5,1474.0 241.6,1475.3 240.6,1476.5 239.5,1477.6 238.4,1478.6 237.2,1479.5 235.9,1480.4 234.5,1481.1 233.1,1481.8 231.7,1482.3 230.2,1482.8 228.7,1483.1 227.1,1483.3 225.5,1483.4 223.9,1483.4 222.4,1483.3 220.8,1483.1 219.2,1482.8 217.6,1482.3 216.1,1481.8 214.6,1481.1 213.2,1480.4 211.8,1479.5 210.4,1478.6 209.1,1477.6 207.9,1476.5 206.8,1475.3 205.7,1474.0 204.7,1472.7 203.8,1471.3 203.0,1469.9 202.3,1468.4 201.7,1466.9 201.2,1465.4 200.9,1463.8 200.6,1462.2 200.4,1460.6 200.4,1459.0 200.4,1457.5 200.6,1455.9 200.9,1454.4 201.2,1452.8 201.7,1451.4 202.3,1449.9 203.0,1448.6 203.8,1447.2 204.7,1446.0 205.7,1444.8 206.8,1443.7 207.9,1442.7 209.1,1441.7 210.4,1440.9 211.8,1440.1 213.2,1439.5 214.6,1439.0 216.1,1438.5 217.6,1438.2 219.2,1438.0 220.8,1437.9 222.4,1437.9 223.9,1438.0 225.5,1438.2 227.1,1438.5 228.7,1439.0 230.2,1439.5 231.7,1440.1 233.1,1440.9 234.5,1441.7 235.9,1442.7 237.2,1443.7 238.4,1444.8 239.5,1446.0 240.6,1447.2 241.6,1448.6 242.5,1449.9 243.3,1451.4 244.0,1452.8 244.6,1454.4 245.1,1455.9 245.4,1457.5 245.7,1459.0 245.9,1460.6 245.9,1461.0 245.9" style="fill:none;stroke:#ffffff;stroke-width:2"/>
<polyline points="1432.9 398.7,1434.5 398.6,1436.0 398.5,1437.6 398.2,1439.1 397.8,1440.7 397.3,1442.1 396.7,1443.6 396.0,1444.9 395.2,1446.3 394.3,1447.5 393.3,1448.7 392.3,1449.8 391.1,1450.8 389.9,1451.8 388.6,1452.6 387.3,1453.4 385.9,1454.0 384.4,1454.5 382.9,1455.0 381.4,1455.3 379.8,1455.5 378.3,1455.6 376.7,1455.6 375.1,1455.5 373.5,1455.3 371.9,1455.0 370.4,1454.5 368.8,1454.0 367.3,1453.4 365.9,1452.6 364.5,1451.8 363.1,1450.8 361.8,1449.8 360.6,1448.7 359.5,1447.5 358.4,1446.3 357.4,1444.9 356.6,1443.6 355.8,1442.1 355.1,1440.7 354.5,1439.1 354.0,1437.6 353.6,1436.0 353.3,1434.5 353.1,1432.9 353.1,1431.3 353.1,1429.7 353.3,1428.1 353.6,1426.6 354.0,1425.1 354.5,1423.6 355.1,1422.2 355.8,1420.8 356.6,1419.5 357.4,1418.2 358.4,1417.0 359.5,1415.9 360.6,1414.9 361.8,1414.0 363.1,1413.1 364.5,1412.4 365.9,1411.7 367.3,1411.2 368.8,1410.7 370.4,1410.4 371.9,1410.2 373.5,1410.1 375.1,1410.1 376.7,1410.2 378.3,1410.4 379.8,1410.7 381.4,1411.2 382.9,1411.7 384.4,1412.4 385.9,1413.1 387.3,1414.0 388.6,1414.9 389.9,1415.9 391.1,1417.0 392.3,1418.2 393.3,1419.5 394.3,1420.8 395.2,1422.2 396.0,1423.6 396.7,1425.1 397.3,1426.6 397.8,1428.1 398.2,1429.7 398.5,1431.3 398.6,1432.9 398.7,1433.3 398.7" style="fill:none;stroke:#ffffff;stroke-width:2"/>
<polyline points="1500.6 399.5,1502.1 399.5,1503.7 399.3,1505.3 399.0,1506.8 398.7,1508.3 398.2,1509.8 397.6,1511.3 396.9,1512.6 396.1,1513.9 395.2,1515.2 394.2,1516.4 393.1,1517.5 392.0,1518.5 390.8,1519.4 389.5,1520.3 388.1,1521.0 386.7,1521.7 385.3,1522.2 383.8,1522.7 382.3,1523.0 380.7,1523.2 379.1,1523.3 377.5,1523.3 376.0,1523.2 374.4,1523.0 372.8,1522.7 371.2,1522.2 369.7,1521.7 368.2,1521.0 366.8,1520.3 365.4,1519.4 364.0,1518.5 362.7,1517.5 361.5,1516.4 360.4,1515.2 359.3,1513.9 358.3,1512.6 357.4,1511.3 356.6,1509.8 355.9,1508.3 355.3,1506.8 354.8,1505.3 354.5,1503.7 354.2,1502.1 354.0,1500.6 354.0,1499.0 354.0,1497.4 354.2,1495.8 354.5,1494.3 354.8,1492.8 355.3,1491.3 355.9,1489.9 356.6,1488.5 357.4,1487.2 358.3,1485.9 359.3,1484.7 360.4,1483.6 361.5,1482.6 362.7,1481.7 364.0,1480.8 365.4,1480.1 366.8,1479.4 368.2,1478.9 369.7,1478.4 371.2,1478.1 372.8,1477.9 374.4,1477.8 376.0,1477.8 377.5,1477.9 379.1,1478.1 380.7,1478.4 382.3,1478.9 383.8,1479.4 385.3,1480.1 386.7,1480.8 388.1,1481.7 389.5,1482.6 390.8,1483.6 392.0,1484.7 393.1,1485.9 394.2,1487.2 395.2,1488.5 396.1,1489.9 396.9,1491.3 397.6,1492.8 398.2,1494.3 398.7,1495.8 399.0,1497.4 399.3,1499.0 399.5,1500.6 399.5,1500.9 399.5" style="fill:none;stroke:#ffffff;stroke-width:2"/>
<polyline points="1569.1 396.9,1570.7 396.9,1572.3 396.7,1573.8 396.4,1575.4 396.1,1576.9 395.6,1578.4 395.0,1579.8 394.3,1581.2 393.5,1582.5 392.6,1583.8 391.6,1584.9 390.5,1586.0 389.4,1587.1 388.2,1588.0 386.9,1588.8 385.5,1589.6 384.1,1590.2 382.7,1590.8 381.2,1591.2 379.7,1591.6 378.1,1591.8 376.5,1591.9 374.9,1591.9 373.3,1591.8 371.8,1591.6 370.2,1591.2 368.6,1590.8 367.1,1590.2 365.6,1589.6 364.2,1588.8 362.7,1588.0 361.4,1587.1 360.1,1586.0 358.9,1584.9 357.7,1583.8 356.7,1582.5 355.7,1581.2 354.8,1579.8 354.0,1578.4 353.3,1576.9 352.7,1575.4 352.2,1573.8 351.8,1572.3 351.6,1570.7 351.4,1569.1 351.4,1567.5 351.4,1565.9 351.6,1564.4 351.8,1562.8 352.2,1561.3 352.7,1559.8 353.3,1558.4 354.0,1557.0 354.8,1555.7 355.7,1554.5 356.7,1553.3 357.7,1552.2 358.9,1551.1 360.1,1550.2 361.4,1549.4 362.7,1548.6 364.2,1548.0 365.6,1547.4 367.1,1547.0 368.6,1546.7 370.2,1546.4 371.8,1546.3 373.3,1546.3 374.9,1546.4 376.5,1546.7 378.1,1547.0 379.7,1547.4 381.2,1548.0 382.7,1548.6 384.1,1549.4 385.5,1550.2 386.9,1551.1 388.2,1552.2 389.4,1553.3 390.5,1554.5 391.6,1555.7 392.6,1557.0 393.5,1558.4 394.3,1559.8 395.0,1561.3 395.6,1562.8 396.1,1564.4 396.4,1565.9 396.7,1567.5 396.9,1569.1 396.9,1569.5 396.9" style="fill:none;stroke:#ffffff;stroke-width:2"/>
<polyline points="1461.7 245.2,1461.7 245.2,1446.8 262.2,1431.8 279.3,1416.9 296.4,1402.0 313.4,1387.0 330.5,1368.4 351.8" style="fill:none;stroke:#ffffff;stroke-width:2"/>
<polyline points="1462.5 245.6,1462.5 245.6,1457.8 262.6,1453.0 279.7,1448.2 296.8,1443.5 313.8,1438.7 330.9,1432.8 352.2" style="fill:none;stroke:#ffffff;stroke-width:2"/>
<polyline points="1463.3 247.2,1463.3 247.2,1469.0 264.2,1474.7 281.2,1480.3 298.2,1486.0 315.2,1491.7 332.2,1498.8 353.4" style="fill:none;stroke:#ffffff;stroke-width:2"/>
<polyline points="1463.3 247.6,1463.3 247.6,1480.4 264.4,1497.5 281.2,1514.5 298.0,1531.6 314.8,1548.7 331.6,1570.0 352.6" style="fill:none;stroke:#ffffff;stroke-width:2"/>
<polyline points="1366.9 397.8,1368.5 397.7,1370.1 397.6,1371.7 397.3,1373.2 396.9,1374.7 396.4,1376.2 395.8,1377.6 395.1,1379.0 394.3,1380.3 393.5,1381.6 392.5,1382.7 391.4,1383.9 390.3,1384.9 389.0,1385.8 387.8,1386.7 386.4,1387.4 385.0,1388.0 383.6,1388.6 382.1,1389.0 380.5,1389.4 379.0,1389.6 377.4,1389.7 375.8,1389.7 374.2,1389.6 372.6,1389.4 371.1,1389.0 369.5,1388.6 368.0,1388.0 366.5,1387.4 365.0,1386.7 363.6,1385.8 362.3,1384.9 361.0,1383.9 359.8,1382.7 358.6,1381.6 357.6,1380.3 356.6,1379.0 355.7,1377.6 354.9,1376.2 354.2,1374.7 353.6,1373.2 353.1,1371.7 352.7,1370.1 352.4,1368.5 352.3,1366.9 352.2,1365.3 352.3,1363.7 352.4,1362.2 352.7,1360.6 353.1,1359.1 353.6,1357.6 354.2,1356.2 354.9,1354.8 355.7,1353.5 356.6,1352.3 357.6,1351.1 358.6,1350.0 359.8,1349.0 361.0,1348.0 362.3,1347.2 363.6,1346.4 365.0,1345.8 366.5,1345.2 368.0,1344.8 369.5,1344.5 371.1,1344.2 372.6,1344.1 374.2,1344.1 375.8,1344.2 377.4,1344.5 379.0,1344.8 380.5,1345.2 382.1,1345.8 383.6,1346.4 385.0,1347.2 386.4,1348.0 387.8,1349.0 389.0,1350.0 390.3,1351.1 391.4,1352.3 392.5,1353.5 393.5,1354.8 394.3,1356.2 395.1,1357.6 395.8,1359.1 396.4,1360.6 396.9,1362.2 397.3,1363.7 397.6,1365.3 397.7,1366.9 397.8,1367.3 397.8" style="fill:none;stroke:#ffffff;stroke-width:2"/>
<polyline points="1361.4 369.6,1362.1 366.4,1364.1 363.5,1365.5 370.3,1365.9 372.7,1366.0 375.0,1366.2 378.9,1366.2 382.0,1366.4 384.2,1366.5 384.7" style="fill:none;stroke:#61ff6f;stroke-width:2"/>
<polyline points="1564.7 369.1,1565.0 365.8,1567.1 364.1,1569.8 364.9,1571.5 367.3,1571.1 371.2,1570.0 373.6,1568.3 375.9,1566.4 378.0,1563.3 381.1,1566.4 380.9,1571.0 380.7,1572.9 380.9" style="fill:none;stroke:#61ff6f;stroke-width:2"/>
<polyline points="820.0 258.3,820.4 253.4,822.2 241.9,824.0 234.9,827.5 222.1,829.7 216.3,831.9 211.5,835.5 204.4,836.3 202.2,836.8 200.9" style="fill:none;stroke:#61ff6f;stroke-width:2"/>
<polyline points="843.0 181.9,844.3 177.4,845.6 173.5,847.8 176.1,849.6 183.2,850.5 186.3,851.4 192.5,851.8 195.1,852.3 198.6,852.3 199.5" style="fill:none;stroke:#61ff6f;stroke-width:2"/>
<polyline points="1108.5 506.2,1111.6 504.4,1115.6 501.7,1128.8 492.5,1143.9 481.4,1150.0 477.4,1155.4 474.3,1160.2 472.6" style="fill:none;stroke:#61ff6f;stroke-width:2"/>
<polyline points="1178.8 460.7,1181.0 454.9,1184.1 460.7,1183.6 466.4,1182.7 469.0,1180.5 474.3,1179.2 477.0,1177.4 481.0,1176.1 483.6,1177.4 481.9,1179.7 479.2,1181.4 477.9,1184.1 477.4,1187.2 477.9" style="fill:none;stroke:#61ff6f;stroke-width:2"/>
<polyline points="1399.4 518.0,1406.1 518.4,1405.2 524.2,1401.2 527.7,1404.3 528.2,1406.5 531.7,1406.9 534.3,1406.1 537.4,1404.7 540.5,1402.5 542.7" style="fill:none;stroke:#61ff6f;stroke-width:2"/>
<polyline points="1121.3 249.9,1125.7 247.7,1130.6 245.5,1148.3 238.0,1154.5 235.8,1160.2 234.0,1165.1 233.1" style="fill:none;stroke:#61ff6f;stroke-width:2"/>
<polyline points="1182.3 220.7,1189.4 219.4,1189.4 225.6,1184.1 231.3,1187.6 233.6,1188.9 236.2,1188.5 238.9,1187.2 241.9,1185.0 245.9,1184.5 246.4" style="fill:none;stroke:#61ff6f;stroke-width:2"/>
<polyline points="1009.5 376.7,1013.1 374.9,1016.6 374.5,1021.0 373.6,1025.9 372.7,1030.3 371.8,1034.3 371.8,1039.1 372.3" style="fill:none;stroke:#61ff6f;stroke-width:2"/>
<polyline points="1053.3 364.3,1052.8 371.4,1052.8 376.7,1059.0 376.7,1064.8 374.1,1067.4 373.6" style="fill:none;stroke:#61ff6f;stroke-width:2"/>
<polyline points="1068.3 366.5,1067.4 372.3,1067.9 379.4,1068.3 382.9,1068.8 385.5,1069.2 387.7,1069.6 390.4,1070.1 391.3" style="fill:none;stroke:#61ff6f;stroke-width:2"/>
<polyline points="1464.4 520.3,1463.5 524.1,1466.5 525.0,1470.1 525.0,1470.4 524.7,1471.0 524.4" style="fill:none;stroke:#61ff6f;stroke-width:2"/>
<polyline points="1473.3 519.7,1472.1 525.6,1472.4 531.0,1473.3 536.9" style="fill:none;stroke:#61ff6f;stroke-width:2"/>
<polyline points="984.2 237.0,982.4 229.2,982.0 227.4,982.0 225.2,981.7 223.1,981.7 220.2" style="fill:none;stroke:#61ff6f;stroke-width:2"/>
<polyline points="985.3 197.0,980.3 197.4,979.2 201.7,981.3 204.5,983.8 203.8,983.5 208.8,981.3 213.1,979.5 214.9,978.8 214.5" style="fill:none;stroke:#61ff6f;stroke-width:2"/>
<polyline points="936.4 292.0,935.7 285.2,935.7 282.3,935.3 274.8,935.3 271.6,935.7 264.5" style="fill:none;stroke:#61ff6f;stroke-width:2"/>
<polyline points="937.1 243.1,933.2 249.1,932.4 252.7,933.5 257.7,936.7 257.4,938.5 254.5,938.5 252.4,936.0 250.9,933.9 251.3,932.8 252.0" style="fill:none;stroke:#61ff6f;stroke-width:2"/>
<polyline points="1309.5 638.6,1305.1 635.6,1302.1 640.4,1302.1 647.3,1304.3 648.2,1306.4 647.8,1307.7 650.0,1307.3 652.6,1306.4 655.2,1304.3 657.8,1302.1 659.5,1300.3 660.0" style="fill:none;stroke:#61ff6f;stroke-width:2"/>
<polyline points="1374.0 638.6,1370.9 643.4,1369.6 646.9,1369.2 649.1,1369.2 655.6,1370.9 659.1,1372.7 660.4,1374.9 657.4,1374.9 654.7,1373.6 653.0,1370.9 652.6,1370.1 653.4" style="fill:none;stroke:#61ff6f;stroke-width:2"/>
<polyline points="1225.3 669.1,1226.9 669.0,1228.5 668.8,1230.0 668.6,1231.5 668.2,1233.0 667.7,1234.5 667.1,1235.9 666.4,1237.2 665.6,1238.5 664.8,1239.8 663.8,1240.9 662.7,1242.0 661.6,1243.0 660.4,1244.0 659.1,1244.8 657.8,1245.5 656.4,1246.2 655.0,1246.7 653.5,1247.1 652.0,1247.5 650.5,1247.7 648.9,1247.8 647.4,1247.8 645.8,1247.7 644.2,1247.5 642.7,1247.1 641.1,1246.7 639.6,1246.2 638.2,1245.5 636.7,1244.8 635.3,1244.0 634.0,1243.0 632.7,1242.0 631.5,1240.9 630.4,1239.8 629.4,1238.5 628.4,1237.2 627.5,1235.9 626.7,1234.5 626.1,1233.0 625.5,1231.5 625.0,1230.0 624.6,1228.5 624.3,1226.9 624.2,1225.3 624.1,1223.8 624.2,1222.2 624.3,1220.7 624.6,1219.1 625.0,1217.6 625.5,1216.2 626.1,1214.8 626.7,1213.4 627.5,1212.1 628.4,1210.9 629.4,1209.7 630.4,1208.6 631.5,1207.6 632.7,1206.7 634.0,1205.9 635.3,1205.1 636.7,1204.5 638.2,1204.0 639.6,1203.5 641.1,1203.2 642.7,1203.0 644.2,1202.9 645.8,1202.9 647.4,1203.0 648.9,1203.2 650.5,1203.5 652.0,1204.0 653.5,1204.5 655.0,1205.1 656.4,1205.9 657.8,1206.7 659.1,1207.6 660.4,1208.6 661.6,1209.7 662.7,1210.9 663.8,1212.1 664.8,1213.4 665.6,1214.8 666.4,1216.2 667.1,1217.6 667.7,1219.1 668.2,1220.7 668.6,1222.2 668.8,1223.8 669.0,1225.3 669.1,1225.7 669.1" style="fill:none;stroke:#ffffff;stroke-width:2"/>
</svg>